<svg id="svg" version="1.1" xmlns="http://www.w3.org/2000/svg" xmlns:xlink="http://www.w3.org/1999/xlink" width="400" height="400" viewBox="0, 0, 400,400"><g id="svgg"><path id="path0" d="M190.800 41.118 C 183.688 41.610,184.128 41.569,179.300 42.198 C 176.119 42.613,168.738 43.851,167.400 44.194 C 167.015 44.293,166.430 44.420,166.100 44.477 C 163.869 44.858,154.718 47.290,152.100 48.197 C 151.440 48.426,150.900 48.595,150.900 48.573 C 150.900 48.449,142.970 51.259,141.500 51.904 C 141.170 52.049,140.495 52.322,140.000 52.512 C 133.237 55.106,121.891 60.944,114.400 65.684 C 110.886 67.908,111.173 67.717,109.025 69.250 C 108.138 69.883,107.327 70.400,107.223 70.400 C 107.119 70.400,107.003 70.472,106.967 70.559 C 106.930 70.647,106.045 71.353,105.000 72.128 C 103.955 72.903,102.335 74.134,101.400 74.864 C 100.465 75.594,99.610 76.260,99.500 76.345 C 98.955 76.767,96.238 79.066,95.800 79.477 C 95.525 79.734,94.715 80.435,94.000 81.034 C 90.893 83.635,83.284 91.224,80.500 94.498 C 79.106 96.137,77.758 97.681,77.617 97.800 C 77.552 97.855,76.966 98.575,76.315 99.400 C 75.663 100.225,74.989 101.045,74.815 101.223 C 74.642 101.401,74.365 101.749,74.200 101.996 C 73.858 102.510,72.367 104.449,72.198 104.600 C 72.137 104.655,71.644 105.330,71.103 106.100 C 70.563 106.870,70.048 107.530,69.960 107.567 C 69.872 107.603,69.800 107.721,69.800 107.827 C 69.800 107.934,69.322 108.669,68.738 109.461 C 68.154 110.252,67.505 111.192,67.295 111.550 C 67.085 111.908,66.843 112.200,66.757 112.200 C 66.671 112.200,66.600 112.294,66.600 112.408 C 66.600 112.523,66.433 112.860,66.229 113.158 C 66.025 113.456,65.464 114.330,64.983 115.100 C 64.502 115.870,64.062 116.545,64.004 116.600 C 63.947 116.655,63.727 117.015,63.515 117.400 C 63.303 117.785,63.078 118.145,63.015 118.200 C 62.952 118.255,62.637 118.795,62.316 119.400 C 61.995 120.005,61.680 120.545,61.616 120.600 C 61.552 120.655,61.185 121.307,60.800 122.050 C 60.415 122.792,60.027 123.400,59.938 123.400 C 59.849 123.400,59.827 123.482,59.889 123.583 C 59.952 123.684,59.934 123.796,59.851 123.833 C 59.674 123.912,59.325 124.570,57.113 129.000 C 55.322 132.585,54.926 133.428,53.542 136.600 C 53.037 137.755,52.425 139.150,52.181 139.700 C 51.937 140.250,51.717 140.790,51.692 140.900 C 51.666 141.010,51.175 142.315,50.600 143.800 C 49.192 147.438,46.864 154.286,46.486 155.900 C 46.460 156.010,45.978 157.810,45.415 159.900 C 44.386 163.720,44.316 164.000,44.101 165.100 C 44.037 165.430,43.939 165.850,43.884 166.034 C 43.828 166.218,43.749 166.533,43.708 166.734 C 43.667 166.935,43.493 167.775,43.321 168.600 C 40.768 180.866,39.488 198.008,40.261 209.600 C 40.632 215.161,41.531 223.371,42.101 226.400 C 42.256 227.225,42.422 228.170,42.470 228.500 C 42.625 229.572,43.005 231.678,43.210 232.600 C 43.320 233.095,43.448 233.680,43.494 233.900 C 44.456 238.465,45.960 244.237,47.119 247.815 C 47.389 248.648,47.645 249.503,47.688 249.715 C 47.796 250.239,49.762 255.953,50.092 256.700 C 50.238 257.030,50.824 258.515,51.393 260.000 C 51.963 261.485,52.607 263.035,52.825 263.445 C 53.042 263.854,53.220 264.234,53.222 264.289 C 53.232 264.747,59.885 278.367,60.213 278.600 C 60.290 278.655,60.663 279.285,61.042 280.000 C 61.880 281.580,61.802 281.448,64.432 285.675 C 65.604 287.559,66.931 289.608,67.382 290.229 C 67.832 290.850,68.200 291.417,68.200 291.488 C 68.200 291.559,68.425 291.860,68.700 292.157 C 68.975 292.453,69.200 292.809,69.200 292.948 C 69.200 293.087,69.271 293.200,69.357 293.200 C 69.443 293.200,69.686 293.493,69.897 293.850 C 70.108 294.208,70.442 294.674,70.640 294.888 C 70.838 295.101,71.000 295.342,71.000 295.423 C 71.000 295.505,71.114 295.690,71.254 295.836 C 71.393 295.981,72.490 297.360,73.692 298.900 C 76.063 301.940,76.547 302.536,78.000 304.200 C 78.528 304.805,79.509 305.956,80.180 306.758 C 81.681 308.553,81.713 308.488,80.324 306.466 C 65.876 285.433,81.276 256.567,106.926 256.604 C 116.601 256.618,122.851 259.509,131.472 267.957 C 135.497 271.901,135.656 272.032,135.992 271.673 C 136.184 271.468,141.203 265.495,147.146 258.400 C 153.089 251.305,158.623 244.783,159.443 243.907 L 160.934 242.314 161.067 249.590 C 161.140 253.591,161.200 263.998,161.200 272.716 L 161.200 288.567 164.750 289.965 C 187.679 298.999,212.534 299.002,235.418 289.974 L 238.600 288.719 238.600 265.259 C 238.600 252.357,238.668 241.808,238.750 241.818 C 239.150 241.865,244.303 247.798,253.414 258.700 C 258.930 265.300,263.695 270.960,264.003 271.278 L 264.564 271.856 266.604 269.878 C 271.770 264.871,280.343 254.318,279.869 253.550 C 279.706 253.286,272.984 245.203,271.510 243.500 C 271.034 242.950,264.867 235.570,257.804 227.100 C 250.742 218.630,244.591 211.257,244.135 210.716 C 243.679 210.174,243.034 209.392,242.703 208.978 C 239.411 204.862,234.893 200.000,234.361 200.000 C 234.235 200.000,233.979 199.862,233.793 199.694 C 233.607 199.525,233.285 199.353,233.077 199.312 C 232.870 199.270,232.430 199.129,232.100 198.998 C 231.770 198.867,231.230 198.701,230.900 198.630 C 229.696 198.369,172.007 198.512,170.500 198.780 C 169.730 198.917,168.380 199.368,167.500 199.784 C 164.920 201.002,163.886 201.890,160.170 206.077 C 158.606 207.839,157.426 209.177,157.098 209.557 C 156.909 209.776,156.562 210.173,156.327 210.439 C 156.092 210.706,155.664 211.233,155.376 211.612 C 155.087 211.990,154.547 212.634,154.176 213.041 C 153.804 213.449,153.259 214.079,152.965 214.441 C 150.273 217.754,147.089 221.556,146.802 221.800 C 146.607 221.965,146.415 222.204,146.374 222.331 C 146.333 222.459,145.924 222.999,145.465 223.531 C 145.006 224.064,143.441 225.940,141.989 227.700 C 140.536 229.460,139.183 231.080,138.981 231.300 C 138.566 231.753,137.947 232.490,136.882 233.798 C 136.480 234.293,135.982 234.815,135.775 234.960 C 135.569 235.104,135.400 235.307,135.400 235.410 C 135.400 235.665,130.846 241.106,129.750 242.160 C 129.447 242.451,129.200 242.764,129.200 242.855 C 129.200 242.992,127.602 244.949,126.470 246.200 C 126.321 246.365,124.841 248.143,123.182 250.150 C 121.523 252.157,120.106 253.797,120.033 253.792 C 119.960 253.788,119.412 253.001,118.815 252.042 C 109.115 236.466,104.014 218.807,104.003 200.762 C 104.000 197.319,104.441 190.056,104.704 189.198 C 104.755 189.032,104.844 188.402,104.902 187.798 C 104.995 186.834,105.217 185.438,105.538 183.800 C 105.651 183.226,105.734 182.750,105.873 181.900 C 106.228 179.714,108.128 172.444,108.447 172.050 C 108.558 171.913,108.599 171.800,108.538 171.800 C 108.187 171.800,111.980 161.913,112.459 161.578 C 112.555 161.510,112.618 161.394,112.597 161.320 C 112.526 161.060,113.448 159.000,113.635 159.000 C 113.739 159.000,113.768 158.910,113.700 158.800 C 113.632 158.690,113.677 158.600,113.800 158.600 C 113.923 158.600,113.968 158.510,113.900 158.400 C 113.832 158.290,113.877 158.200,114.000 158.200 C 114.123 158.200,114.168 158.110,114.100 158.000 C 114.032 157.890,114.077 157.800,114.200 157.800 C 114.323 157.800,114.368 157.710,114.300 157.600 C 114.232 157.490,114.277 157.400,114.400 157.400 C 114.523 157.400,114.568 157.310,114.500 157.200 C 114.432 157.090,114.457 157.000,114.555 157.000 C 114.653 157.000,114.733 156.887,114.733 156.750 C 114.733 155.796,121.968 144.387,123.857 142.362 C 124.133 142.066,124.390 141.735,124.429 141.627 C 124.729 140.791,130.416 134.533,133.913 131.192 C 155.009 111.034,184.732 101.596,213.865 105.805 C 215.424 106.030,216.880 106.274,217.100 106.347 C 217.320 106.420,217.569 106.461,217.654 106.438 C 217.739 106.416,218.443 106.541,219.218 106.718 C 221.057 107.136,221.136 106.995,219.435 106.328 C 205.360 100.806,197.104 84.021,201.009 68.866 C 204.767 54.282,218.803 43.952,233.592 44.886 C 235.566 45.011,236.237 44.889,234.769 44.673 C 234.401 44.618,233.740 44.480,233.301 44.366 C 229.840 43.466,218.857 41.863,213.000 41.403 C 211.515 41.287,209.760 41.143,209.100 41.084 C 206.595 40.861,194.182 40.884,190.800 41.118 M194.364 127.613 C 191.552 128.103,187.344 129.529,185.099 130.753 C 182.562 132.137,182.366 132.252,181.770 132.700 C 181.478 132.920,180.942 133.325,180.579 133.600 C 178.597 135.100,175.966 137.727,174.400 139.770 C 174.125 140.129,173.743 140.611,173.550 140.842 C 173.358 141.072,173.200 141.331,173.200 141.416 C 173.200 141.502,173.084 141.690,172.942 141.836 C 172.175 142.621,169.140 149.394,168.881 150.900 C 168.862 151.010,168.750 151.460,168.633 151.900 C 165.486 163.691,170.347 177.282,180.498 185.073 C 182.809 186.847,187.828 189.529,189.548 189.909 C 189.684 189.939,190.382 190.153,191.098 190.385 C 203.305 194.328,218.079 189.192,225.855 178.300 C 226.483 177.420,227.065 176.610,227.148 176.500 C 228.078 175.274,230.221 170.321,230.913 167.800 C 231.370 166.139,231.406 165.972,231.526 165.000 C 231.587 164.505,231.714 163.741,231.808 163.302 C 232.306 160.974,231.885 154.570,231.012 151.200 C 229.070 143.701,222.883 135.279,217.000 132.125 C 216.615 131.919,216.255 131.691,216.200 131.619 C 216.093 131.478,211.906 129.400,211.731 129.400 C 211.673 129.400,211.373 129.295,211.063 129.167 C 210.753 129.038,210.455 128.925,210.400 128.914 C 210.345 128.903,210.202 128.831,210.083 128.755 C 209.963 128.679,209.468 128.520,208.983 128.403 C 208.497 128.285,207.920 128.144,207.700 128.089 C 203.889 127.142,198.230 126.940,194.364 127.613 " stroke="none" fill="#4b4d54" fill-rule="evenodd"></path><path id="path1" d="M195.550 40.941 C 195.798 40.989,196.203 40.989,196.450 40.941 C 196.697 40.893,196.495 40.854,196.000 40.854 C 195.505 40.854,195.303 40.893,195.550 40.941 M203.450 40.943 C 203.753 40.989,204.248 40.989,204.550 40.943 C 204.853 40.897,204.605 40.860,204.000 40.860 C 203.395 40.860,203.148 40.897,203.450 40.943 M189.952 41.141 C 190.201 41.189,190.561 41.187,190.752 41.137 C 190.944 41.087,190.740 41.048,190.300 41.050 C 189.860 41.053,189.704 41.094,189.952 41.141 M187.152 41.341 C 187.401 41.389,187.761 41.387,187.952 41.337 C 188.144 41.287,187.940 41.248,187.500 41.250 C 187.060 41.253,186.904 41.294,187.152 41.341 M228.870 44.997 C 208.341 47.269,195.248 67.362,201.610 86.832 C 204.434 95.473,211.521 103.223,219.441 106.330 C 220.404 106.708,220.737 106.923,220.557 107.050 C 220.391 107.168,220.501 107.188,220.867 107.108 C 221.259 107.022,221.391 107.053,221.295 107.208 C 221.209 107.348,221.297 107.415,221.528 107.386 C 221.733 107.360,222.035 107.389,222.200 107.452 C 222.365 107.514,224.030 107.991,225.900 108.512 C 277.120 122.783,306.970 176.645,291.995 227.773 C 289.523 236.214,284.733 246.779,280.753 252.568 L 280.156 253.436 279.438 252.768 L 278.720 252.100 279.360 252.857 C 280.164 253.808,280.283 253.437,278.259 256.267 C 274.795 261.107,270.609 265.996,266.604 269.878 L 264.564 271.856 264.003 271.278 C 263.695 270.960,258.930 265.300,253.414 258.700 C 244.303 247.798,239.150 241.865,238.750 241.818 C 238.668 241.808,238.600 252.357,238.600 265.259 L 238.600 288.719 235.418 289.974 C 212.534 299.002,187.679 298.999,164.750 289.965 L 161.200 288.567 161.200 272.716 C 161.200 263.998,161.140 253.591,161.067 249.590 L 160.934 242.314 159.443 243.907 C 158.623 244.783,153.089 251.305,147.146 258.400 C 141.203 265.495,136.184 271.468,135.992 271.673 C 135.656 272.032,135.497 271.901,131.472 267.957 C 125.883 262.480,123.225 260.579,118.666 258.796 C 98.178 250.786,75.788 265.251,74.856 287.100 C 74.580 293.565,76.556 300.974,79.826 305.736 C 80.548 306.788,80.556 307.008,79.850 306.385 L 79.300 305.900 79.779 306.444 C 80.043 306.743,80.321 306.949,80.397 306.902 C 80.554 306.805,81.400 307.880,81.400 308.176 C 81.400 309.159,94.739 321.581,101.500 326.894 C 108.363 332.287,123.744 342.233,124.478 341.753 C 124.522 341.724,124.725 341.850,124.929 342.034 C 125.506 342.553,132.939 346.165,136.916 347.858 C 181.875 367.003,232.300 364.880,275.200 342.038 C 302.412 327.549,327.144 303.154,340.121 278.002 C 340.659 276.958,341.157 276.058,341.226 276.002 C 341.478 275.797,344.790 269.010,346.253 265.700 C 362.517 228.898,364.433 187.529,351.628 149.600 C 349.939 144.599,347.654 138.672,346.693 136.800 C 346.552 136.525,346.238 135.805,345.996 135.200 C 341.792 124.694,330.998 107.680,321.635 96.800 C 309.157 82.299,291.144 67.687,276.887 60.500 C 276.014 60.060,275.255 59.643,275.200 59.574 C 274.788 59.057,264.689 54.352,259.600 52.305 C 252.249 49.350,238.988 45.205,236.672 45.140 C 236.303 45.129,236.000 45.071,235.999 45.010 C 235.998 44.834,230.440 44.824,228.870 44.997 M89.291 85.250 L 88.500 86.100 89.350 85.309 C 90.140 84.574,90.292 84.400,90.141 84.400 C 90.108 84.400,89.725 84.783,89.291 85.250 M85.400 89.100 C 84.914 89.595,84.562 90.000,84.617 90.000 C 84.672 90.000,85.114 89.595,85.600 89.100 C 86.086 88.605,86.438 88.200,86.383 88.200 C 86.328 88.200,85.886 88.605,85.400 89.100 M197.662 104.950 C 199.071 104.984,201.321 104.984,202.662 104.949 C 204.003 104.915,202.850 104.887,200.100 104.887 C 197.350 104.887,196.253 104.915,197.662 104.950 M206.253 105.144 C 206.557 105.189,207.007 105.188,207.253 105.141 C 207.499 105.093,207.250 105.056,206.700 105.057 C 206.150 105.059,205.949 105.098,206.253 105.144 M208.952 105.341 C 209.201 105.389,209.561 105.387,209.752 105.337 C 209.944 105.287,209.740 105.248,209.300 105.250 C 208.860 105.253,208.704 105.294,208.952 105.341 M171.900 109.000 C 171.648 109.108,171.611 109.172,171.800 109.172 C 171.965 109.172,172.280 109.095,172.500 109.000 C 172.752 108.892,172.789 108.828,172.600 108.828 C 172.435 108.828,172.120 108.905,171.900 109.000 M138.600 127.020 L 137.500 128.035 138.650 127.093 C 139.659 126.267,139.934 125.994,139.750 126.002 C 139.722 126.003,139.205 126.461,138.600 127.020 M136.300 128.942 C 134.434 130.648,131.733 133.265,132.118 132.994 C 132.620 132.641,137.331 128.198,137.195 128.205 C 137.143 128.208,136.740 128.540,136.300 128.942 M130.092 135.050 C 128.380 136.816,126.592 138.809,127.714 137.700 C 129.029 136.400,131.867 133.400,131.782 133.400 C 131.732 133.400,130.972 134.143,130.092 135.050 M221.600 135.700 C 221.973 136.085,222.323 136.400,222.378 136.400 C 222.433 136.400,222.173 136.085,221.800 135.700 C 221.427 135.315,221.077 135.000,221.022 135.000 C 220.967 135.000,221.227 135.315,221.600 135.700 M223.000 137.063 C 223.000 137.097,223.293 137.390,223.650 137.713 L 224.300 138.300 223.713 137.650 C 223.165 137.044,223.000 136.908,223.000 137.063 M126.487 139.050 L 125.900 139.700 126.550 139.113 C 126.908 138.790,127.200 138.497,127.200 138.463 C 127.200 138.308,127.035 138.444,126.487 139.050 M122.980 143.450 C 121.971 144.761,121.944 144.800,122.051 144.800 C 122.107 144.800,122.526 144.305,122.982 143.700 C 123.439 143.095,123.773 142.600,123.723 142.600 C 123.674 142.600,123.339 142.983,122.980 143.450 M117.954 150.850 C 117.517 151.525,117.124 152.328,117.344 152.100 C 117.624 151.809,118.449 150.400,118.339 150.400 C 118.288 150.400,118.115 150.603,117.954 150.850 M115.900 154.400 C 115.729 154.730,115.635 155.000,115.690 155.000 C 115.745 155.000,115.929 154.730,116.100 154.400 C 116.271 154.070,116.365 153.800,116.310 153.800 C 116.255 153.800,116.071 154.070,115.900 154.400 M114.900 156.200 C 114.729 156.530,114.635 156.800,114.690 156.800 C 114.745 156.800,114.929 156.530,115.100 156.200 C 115.271 155.870,115.365 155.600,115.310 155.600 C 115.255 155.600,115.071 155.870,114.900 156.200 M113.232 159.509 C 112.897 160.244,112.961 160.401,113.324 159.732 C 113.493 159.420,113.594 159.127,113.548 159.081 C 113.502 159.036,113.360 159.228,113.232 159.509 M175.600 180.663 C 175.600 180.697,175.893 180.990,176.250 181.313 L 176.900 181.900 176.313 181.250 C 175.765 180.644,175.600 180.508,175.600 180.663 M177.400 182.463 C 177.400 182.497,177.692 182.790,178.050 183.113 L 178.700 183.700 178.113 183.050 C 177.565 182.444,177.400 182.308,177.400 182.463 M40.446 188.600 C 40.446 188.985,40.488 189.143,40.538 188.950 C 40.588 188.758,40.588 188.442,40.538 188.250 C 40.488 188.058,40.446 188.215,40.446 188.600 M40.250 191.300 C 40.253 191.740,40.294 191.896,40.341 191.648 C 40.389 191.399,40.387 191.039,40.337 190.848 C 40.287 190.656,40.248 190.860,40.250 191.300 M104.446 191.400 C 104.446 191.785,104.488 191.942,104.538 191.750 C 104.588 191.558,104.588 191.243,104.538 191.050 C 104.488 190.858,104.446 191.015,104.446 191.400 M104.250 193.900 C 104.253 194.340,104.294 194.496,104.341 194.248 C 104.389 193.999,104.387 193.639,104.337 193.448 C 104.287 193.256,104.248 193.460,104.250 193.900 M104.087 200.700 C 104.087 203.450,104.115 204.603,104.149 203.262 C 104.184 201.921,104.184 199.671,104.150 198.262 C 104.115 196.853,104.087 197.950,104.087 200.700 M40.050 197.100 C 40.053 197.540,40.094 197.696,40.141 197.448 C 40.189 197.199,40.187 196.839,40.137 196.648 C 40.087 196.456,40.048 196.660,40.050 197.100 M178.950 198.548 C 179.638 198.587,180.763 198.587,181.450 198.548 C 182.138 198.509,181.575 198.477,180.200 198.477 C 178.825 198.477,178.263 198.509,178.950 198.548 M40.050 204.700 C 40.053 205.140,40.094 205.296,40.141 205.048 C 40.189 204.799,40.187 204.439,40.137 204.248 C 40.087 204.056,40.048 204.260,40.050 204.700 M104.257 207.300 C 104.259 207.850,104.298 208.051,104.344 207.747 C 104.389 207.443,104.388 206.993,104.341 206.747 C 104.293 206.501,104.256 206.750,104.257 207.300 M104.454 209.800 C 104.454 210.295,104.493 210.498,104.541 210.250 C 104.589 210.003,104.589 209.597,104.541 209.350 C 104.493 209.103,104.454 209.305,104.454 209.800 M40.246 210.400 C 40.246 210.785,40.288 210.943,40.338 210.750 C 40.388 210.558,40.388 210.243,40.338 210.050 C 40.288 209.857,40.246 210.015,40.246 210.400 M104.646 211.600 C 104.646 211.985,104.688 212.143,104.738 211.950 C 104.788 211.757,104.788 211.443,104.738 211.250 C 104.688 211.058,104.646 211.215,104.646 211.600 M40.446 213.200 C 40.446 213.585,40.488 213.743,40.538 213.550 C 40.588 213.357,40.588 213.043,40.538 212.850 C 40.488 212.657,40.446 212.815,40.446 213.200 M105.046 214.800 C 105.046 215.185,105.088 215.343,105.138 215.150 C 105.188 214.957,105.188 214.643,105.138 214.450 C 105.088 214.257,105.046 214.415,105.046 214.800 M108.028 228.200 C 108.028 228.365,108.105 228.680,108.200 228.900 C 108.308 229.152,108.372 229.189,108.372 229.000 C 108.372 228.835,108.295 228.520,108.200 228.300 C 108.092 228.048,108.028 228.011,108.028 228.200 M244.383 248.300 C 256.649 262.619,264.223 271.832,263.974 272.131 C 262.501 273.906,253.870 280.232,248.831 283.230 C 246.785 284.448,239.206 288.400,238.918 288.400 C 238.756 288.400,238.768 255.231,238.932 248.125 L 239.065 242.384 239.754 243.042 C 240.133 243.404,242.216 245.770,244.383 248.300 M160.711 288.155 C 160.613 288.254,154.878 285.307,152.300 283.833 C 147.070 280.844,141.048 276.563,136.700 272.743 L 135.900 272.040 136.322 271.570 C 136.554 271.311,140.283 266.870,144.609 261.700 C 148.936 256.530,154.326 250.141,156.588 247.502 L 160.700 242.704 160.751 265.384 C 160.779 277.859,160.761 288.106,160.711 288.155 M115.500 246.400 C 115.671 246.730,115.855 247.000,115.910 247.000 C 115.965 247.000,115.871 246.730,115.700 246.400 C 115.529 246.070,115.345 245.800,115.290 245.800 C 115.235 245.800,115.329 246.070,115.500 246.400 M121.971 251.392 C 120.524 253.107,120.064 253.536,119.856 253.364 C 119.650 253.192,119.619 253.216,119.717 253.472 C 119.927 254.019,120.088 253.885,122.087 251.500 C 123.147 250.235,123.971 249.200,123.917 249.200 C 123.864 249.200,122.988 250.186,121.971 251.392 " stroke="none" fill="#6ce4ea" fill-rule="evenodd"></path></g></svg>